<?xml version="1.0" encoding="utf-8"?>
<!-- Generator: Adobe Illustrator 24.3.0, SVG Export Plug-In . SVG Version: 6.00 Build 0)  -->
<svg version="1.1"
	 id="svg17" sodipodi:docname="logo.svg" xmlns:inkscape="http://www.inkscape.org/namespaces/inkscape" xmlns:sodipodi="http://sodipodi.sourceforge.net/DTD/sodipodi-0.dtd" xmlns:svg="http://www.w3.org/2000/svg"
	 xmlns="http://www.w3.org/2000/svg" xmlns:xlink="http://www.w3.org/1999/xlink" x="0px" y="0px" viewBox="0 0 501.3 75.4"
	 style="enable-background:new 0 0 501.3 75.4;" xml:space="preserve">
<style type="text/css">
	.st0{fill:#3B3C98;}
</style>
<sodipodi:namedview  bordercolor="#000000" borderopacity="0.25" id="namedview19" inkscape:deskcolor="#d1d1d1" inkscape:pagecheckerboard="0" inkscape:pageopacity="0.0" inkscape:showpageshadow="2" pagecolor="#ffffff">
	</sodipodi:namedview>
<g id="SvgjsG2382" transform="matrix(2,0,0,2,0,-19)">
	<g id="g11" transform="translate(-270 -140)">
		<g id="g9">
			<path id="path3" class="st0" d="M289.6,174.6c-1.6,0-3,0.9-3.8,2.2c-0.4,0.6-0.6,1.4-0.6,2.2c0,2.4,2,4.4,4.4,4.4
				c2.4,0,4.4-2,4.4-4.4c0-0.8-0.2-1.5-0.6-2.2C292.6,175.4,291.2,174.6,289.6,174.6z"/>
			<path id="path5" class="st0" d="M320.1,174.6c-1.6,0-3,0.9-3.8,2.2c-0.4,0.6-0.6,1.4-0.6,2.2c0,2.4,2,4.4,4.4,4.4
				c2.4,0,4.4-2,4.4-4.4c0-0.8-0.2-1.5-0.6-2.2C323.1,175.4,321.7,174.6,320.1,174.6z"/>
			<path id="path7" class="st0" d="M333.2,170.2V168l-13.1-3.7l-15.3-9.3h-24v2.2H294v2.2h-24v2.2h26.2v2.2h-21.8v2.2h10.9v2.2h-4.4
				v2.2h-8.7v2.2h10.9v2.2h-2.2v2.2h-6.5v2.2h8.7c0-0.8,0.2-1.5,0.4-2.2c0.9-2.5,3.3-4.4,6.1-4.4c2.8,0,5.2,1.8,6.1,4.4
				c0.2,0.7,0.4,1.4,0.4,2.2h17.4c0-0.8,0.2-1.5,0.4-2.2c0.9-2.5,3.3-4.4,6.1-4.4c2.8,0,5.2,1.8,6.1,4.4c0.2,0.7,0.4,1.4,0.4,2.2
				h6.5v-2.2h2.2v-6.5H333.2z"/>
		</g>
	</g>
</g>
<g>
	<path d="M226,31.9c0,5.5-1,10.3-3,14.5c-2,4.2-4.9,7.4-8.6,9.7s-8,3.4-12.7,3.4c-4.8,0-9-1.1-12.7-3.3s-6.6-5.3-8.6-9.4
		c-2.1-4.1-3.1-8.7-3.2-14v-3.2c0-5.5,1-10.3,3-14.5c2-4.2,4.9-7.4,8.6-9.7c3.8-2.3,8-3.4,12.8-3.4c4.7,0,9,1.1,12.7,3.4
		c3.7,2.3,6.6,5.5,8.7,9.6c2.1,4.2,3.1,8.9,3.1,14.3V31.9z M212.2,29.5c0-5.6-0.9-9.8-2.8-12.7c-1.9-2.9-4.5-4.3-8-4.3
		c-6.8,0-10.3,5.1-10.7,15.2l0,4.1c0,5.5,0.9,9.7,2.7,12.6c1.8,2.9,4.5,4.4,8.1,4.4c3.4,0,6-1.4,7.9-4.3c1.8-2.9,2.8-7.1,2.8-12.5
		V29.5z"/>
	<path d="M244.2,17.1l0.4,4.9c2.9-3.8,6.8-5.6,11.9-5.6c4.3,0,7.6,1.3,9.7,3.9s3.2,6.5,3.3,11.7v26.8h-13V32.4
		c0-2.1-0.4-3.6-1.3-4.6c-0.8-1-2.4-1.5-4.6-1.5c-2.5,0-4.4,1-5.6,3v29.4h-12.9V17.1H244.2z"/>
	<path d="M296.8,59.4c-6.4,0-11.5-1.9-15.5-5.7s-5.9-8.8-5.9-14.9v-1.1c0-4.3,0.8-8,2.4-11.3s3.9-5.8,6.9-7.6
		c3-1.8,6.6-2.7,10.8-2.7c5.8,0,10.5,1.8,13.8,5.4c3.4,3.6,5.1,8.7,5.1,15.2v5h-25.7c0.5,2.3,1.5,4.2,3,5.5c1.6,1.3,3.6,2,6.1,2
		c4.1,0,7.3-1.4,9.6-4.3l5.9,7c-1.6,2.2-3.9,4-6.9,5.3C303.4,58.8,300.2,59.4,296.8,59.4z M295.4,26.3c-3.8,0-6,2.5-6.8,7.5h13.1v-1
		c0.1-2.1-0.5-3.7-1.6-4.8C299,26.9,297.4,26.3,295.4,26.3z"/>
	<path d="M368.6,43.8c0-2-0.7-3.5-2.1-4.6c-1.4-1.1-3.8-2.2-7.4-3.4c-3.5-1.2-6.4-2.3-8.6-3.4c-7.2-3.6-10.9-8.5-10.9-14.7
		c0-3.1,0.9-5.8,2.7-8.2s4.4-4.2,7.7-5.5c3.3-1.3,7-2,11.1-2c4,0,7.6,0.7,10.8,2.2s5.7,3.5,7.4,6.1c1.8,2.7,2.7,5.7,2.7,9.1h-13.4
		c0-2.3-0.7-4-2.1-5.3c-1.4-1.3-3.3-1.9-5.7-1.9c-2.4,0-4.3,0.5-5.7,1.6c-1.4,1.1-2.1,2.4-2.1,4.1c0,1.4,0.8,2.7,2.3,3.9
		c1.5,1.2,4.2,2.4,8.1,3.6c3.9,1.2,7,2.6,9.5,4c6,3.5,9.1,8.3,9.1,14.4c0,4.9-1.8,8.7-5.5,11.5c-3.7,2.8-8.7,4.2-15.2,4.2
		c-4.5,0-8.6-0.8-12.3-2.4c-3.7-1.6-6.4-3.9-8.3-6.7c-1.9-2.8-2.8-6.1-2.8-9.8h13.5c0,3,0.8,5.2,2.3,6.6s4.1,2.1,7.5,2.1
		c2.2,0,4-0.5,5.3-1.4C367.9,46.9,368.6,45.6,368.6,43.8z"/>
	<path d="M403.5,6.8v10.3h6.8v9h-6.8v19c0,1.6,0.3,2.7,0.8,3.3c0.6,0.6,1.7,0.9,3.3,0.9c1.3,0,2.4-0.1,3.2-0.2v9.3
		c-2.3,0.7-4.8,1.1-7.3,1.1c-4.5,0-7.7-1-9.9-3.2s-3.2-5.3-3.2-9.6V26.1h-5.3v-9h5.3V6.8H403.5z"/>
	<path d="M412.6,37.5c0-4.1,0.8-7.8,2.4-11.1c1.6-3.2,3.9-5.7,7-7.5c3-1.7,6.6-2.6,10.6-2.6c6.2,0,11.1,1.9,14.7,5.8
		c3.6,3.9,5.4,9.1,5.4,15.7v0.5c0,6.5-1.8,11.6-5.4,15.4s-8.5,5.7-14.6,5.7c-5.9,0-10.7-1.8-14.3-5.3s-5.5-8.4-5.8-14.4L412.6,37.5z
		 M425.6,38.3c0,3.8,0.6,6.7,1.8,8.5s3,2.7,5.3,2.7c4.6,0,7-3.5,7.1-10.6v-1.3c0-7.5-2.4-11.2-7.1-11.2c-4.3,0-6.7,3.2-7,9.6
		L425.6,38.3z"/>
	<path d="M497,38.2c0,6.5-1.5,11.6-4.4,15.5c-2.9,3.9-6.8,5.8-11.8,5.8c-3.8,0-7-1.4-9.4-4.2v19.4h-12.9V17.1h12.1l0.4,3.8
		c2.5-3.1,5.8-4.6,9.8-4.6c5.1,0,9.1,1.9,11.9,5.7c2.8,3.8,4.3,9,4.3,15.6V38.2z M484.1,37.4c0-7.4-2.2-11.1-6.5-11.1
		c-3.1,0-5.1,1.1-6.1,3.3V46c1.1,2.3,3.2,3.5,6.2,3.5c4.1,0,6.2-3.6,6.4-10.7V37.4z"/>
</g>
</svg>
